<svg width="76" height="76" viewBox="0 0 76 76" fill="none" xmlns="http://www.w3.org/2000/svg">
<g id="app-icon">
<g id="icon">
<path fill-rule="evenodd" clip-rule="evenodd" d="M12 36C12 25.5066 20.5066 17 31 17H45C55.4934 17 64 25.5066 64 36C64 46.4934 55.4934 55 45 55H44L29 65V54.896C19.4467 53.8966 12 45.8179 12 36ZM44.1934 48L34 55V48H31C24.3726 48 19 42.6274 19 36C19 29.3726 24.3726 24 31 24H45C51.6274 24 57 29.3726 57 36C57 42.6274 51.6274 48 45 48H44.1934ZM31 32C28.7909 32 27 33.7909 27 36C27 38.2091 28.7909 40 31 40C33.2091 40 35 38.2091 35 36C35 33.7909 33.2091 32 31 32ZM52 36C48.8538 35.6267 46.3733 33.1462 46 30C45.6267 33.1462 43.1462 35.6267 40 36C43.1462 36.3733 45.6267 38.8538 46 42C46.3733 38.8538 48.8538 36.3733 52 36Z" fill="url(#paint0_radial_1_47)"/>
<path fill-rule="evenodd" clip-rule="evenodd" d="M12 36C12 25.5066 20.5066 17 31 17H45C55.4934 17 64 25.5066 64 36C64 46.4934 55.4934 55 45 55H44L29 65V54.896C19.4467 53.8966 12 45.8179 12 36ZM44.1934 48L34 55V48H31C24.3726 48 19 42.6274 19 36C19 29.3726 24.3726 24 31 24H45C51.6274 24 57 29.3726 57 36C57 42.6274 51.6274 48 45 48H44.1934ZM31 32C28.7909 32 27 33.7909 27 36C27 38.2091 28.7909 40 31 40C33.2091 40 35 38.2091 35 36C35 33.7909 33.2091 32 31 32ZM52 36C48.8538 35.6267 46.3733 33.1462 46 30C45.6267 33.1462 43.1462 35.6267 40 36C43.1462 36.3733 45.6267 38.8538 46 42C46.3733 38.8538 48.8538 36.3733 52 36Z" fill="url(#paint1_radial_1_47)"/>
</g>
</g>
<defs>
<radialGradient id="paint0_radial_1_47" cx="0" cy="0" r="1" gradientUnits="userSpaceOnUse" gradientTransform="translate(7.5 17) rotate(40.7858) scale(67.3573 72.9704)">
<stop offset="0.187564" stop-color="#B6908D"/>
<stop offset="1" stop-color="#142ECA"/>
</radialGradient>
<radialGradient id="paint1_radial_1_47" cx="0" cy="0" r="1" gradientUnits="userSpaceOnUse" gradientTransform="translate(7.5 17) rotate(40.7858) scale(67.3573 72.9704)">
<stop offset="0.21307" stop-color="#B58F8E"/>
<stop offset="1" stop-color="#8391FF"/>
</radialGradient>
</defs>
</svg>
