<svg width="277" height="48" viewBox="0 0 277 48" fill="none" xmlns="http://www.w3.org/2000/svg">
<path d="M254.977 14.5449C255.542 14.5449 256.027 14.6254 256.391 14.7059L256.108 18.731C255.866 18.731 255.503 18.6906 254.937 18.6906C252.432 18.6906 250.574 19.4957 249.281 21.1056C247.989 22.7157 247.342 24.8892 247.342 27.7067V34.7504H243.142V14.7864H247.342V19.0529C249.16 16.0745 251.705 14.5449 254.977 14.5449Z" fill="white"/>
<path d="M239.298 24.3255V25.7745H223.058C223.22 27.5857 223.906 29.0347 225.077 30.0811C226.209 31.1679 227.582 31.6912 229.118 31.6912C231.864 31.6912 233.843 30.5641 235.015 28.2297L238.772 29.0347C237.964 31.1277 236.711 32.6974 235.015 33.744C233.318 34.7904 231.379 35.3137 229.118 35.3137C226.289 35.3137 223.906 34.3477 221.886 32.3754C219.867 30.4434 218.897 27.9076 218.897 24.8085C218.897 21.7092 219.867 19.1734 221.886 17.2012C223.906 15.2289 226.37 14.2227 229.279 14.2227C231.986 14.2227 234.288 15.1887 236.227 17.0805C238.166 18.9721 239.176 21.3871 239.298 24.3255ZM229.279 17.9257C227.865 17.9257 226.572 18.3684 225.401 19.2136C224.189 20.0992 223.462 21.2664 223.179 22.7959H234.974C234.652 21.2262 233.965 20.0187 232.955 19.1734C231.904 18.3684 230.693 17.9257 229.279 17.9257Z" fill="white"/>
<path d="M218.3 14.7461L209.656 34.7503H205.171L196.567 14.7461H201.132L207.434 29.7593L213.735 14.7461H218.3Z" fill="white"/>
<path d="M189.125 11.6874V30.8465H195.062V34.7507H178.823V30.8465H184.762V11.6874H178.823V7.7832H195.062V11.6874H189.125Z" fill="white"/>
<path d="M177.685 34.7507H172.998L170.332 28.4717H157.164L154.498 34.7507H149.812L161.729 7.7832H165.768L177.685 34.7507ZM168.635 24.5271L163.747 13.0559L158.861 24.5271H168.635Z" fill="white"/>
<path d="M133.429 19.4548H148.334C148.374 20.4208 148.415 21.0647 148.415 21.3062C148.415 25.3312 147.122 28.672 144.578 31.3285C141.993 33.985 138.72 35.3132 134.761 35.3132C130.762 35.3132 127.409 33.985 124.662 31.2479C121.916 28.5512 120.542 25.2104 120.542 21.266C120.542 17.3617 121.875 14.0613 124.622 11.3243C127.328 8.58726 130.681 7.21875 134.64 7.21875C137.59 7.21875 140.256 7.94325 142.598 9.31176C144.941 10.7205 146.557 12.6928 147.527 15.1882L143.608 16.5568C141.871 13.055 138.881 11.284 134.64 11.284C131.893 11.284 129.591 12.25 127.733 14.182C125.874 16.114 124.945 18.4484 124.945 21.266C124.945 24.1237 125.874 26.4985 127.813 28.3903C129.712 30.3223 132.056 31.2479 134.883 31.2479C137.307 31.2479 139.366 30.5638 141.063 29.1148C142.72 27.6658 143.769 25.774 144.174 23.3992H133.429V19.4548Z" fill="white"/>
<path d="M108.135 31.4497C109.508 31.4497 110.68 31.1277 111.73 30.4032C112.78 29.6787 113.548 28.6321 114.032 27.2637L117.91 28.2699C117.345 30.4032 116.133 32.0937 114.356 33.3817C112.538 34.6696 110.477 35.3137 108.135 35.3137C105.186 35.3137 102.681 34.3477 100.621 32.3754C98.5608 30.4032 97.5508 27.8674 97.5508 24.7681C97.5508 21.7092 98.5608 19.2136 100.621 17.2012C102.681 15.2289 105.186 14.2227 108.135 14.2227C110.397 14.2227 112.457 14.8667 114.234 16.1547C116.012 17.4427 117.264 19.1332 117.91 21.2262L113.871 22.3935C113.467 20.9847 112.78 19.8979 111.77 19.1734C110.72 18.4489 109.508 18.0867 108.135 18.0867C106.276 18.0867 104.701 18.7306 103.489 19.9785C102.277 21.2262 101.671 22.8361 101.671 24.7681C101.671 26.7807 102.277 28.431 103.489 29.6385C104.701 30.846 106.236 31.4497 108.135 31.4497Z" fill="white"/>
<path d="M92.0559 7.7832V34.7507H87.8547V17.5236L78.5637 34.7507H75.8976L66.6065 17.5236V34.7507H62.4053V7.7832H66.2026L77.2306 28.19L88.2991 7.7832H92.0559Z" fill="white"/>
<path fill-rule="evenodd" clip-rule="evenodd" d="M3.01074 18.1249C3.01074 8.94327 10.481 1.5 19.6959 1.5H31.9904C41.2053 1.5 48.6755 8.94327 48.6755 18.1249C48.6755 27.3067 41.2054 34.7501 31.9904 34.7501H31.1122L17.9397 43.5V34.659C9.55019 33.7845 3.01074 26.7157 3.01074 18.1249ZM31.2821 28.6249L22.3304 34.7501V28.6249H19.6959C13.876 28.6249 9.15793 23.9239 9.15793 18.1249C9.15793 12.326 13.876 7.625 19.6959 7.625H31.9904C37.8104 7.625 42.5284 12.326 42.5284 18.1249C42.5284 23.9239 37.8104 28.6249 31.9904 28.6249H31.2821ZM19.6959 14.625C17.756 14.625 16.1833 16.1921 16.1833 18.1249C16.1833 20.058 17.756 21.6251 19.6959 21.6251C21.636 21.6251 23.2087 20.058 23.2087 18.1249C23.2087 16.1921 21.636 14.625 19.6959 14.625ZM38.1375 18.1249C35.3747 17.7984 33.1964 15.6279 32.8685 12.875C32.5407 15.6279 30.3624 17.7984 27.5995 18.1249C30.3624 18.4516 32.5407 20.6221 32.8685 23.3749C33.1964 20.6221 35.3747 18.4516 38.1375 18.1249Z" fill="white"/>
</svg>
