<svg xmlns="http://www.w3.org/2000/svg" viewBox="167.573 294.887 43.081 43.081" width="43.081" height="43.081">
  <rect width="43.081" height="43.081" fill="white" rx="12" x="167.573" y="294.887" style="stroke-width:1px"/>
  <path fill-rule="evenodd" clip-rule="evenodd" d="M199.315 323.575a.7.7 0 0 0-.51.201.68.68 0 0 0-.204.5v6.518l-9.037-2.557a.64.64 0 0 0-.409 0l-9.036 2.557v-5.765h15.98a.7.7 0 0 0 .51-.201.68.68 0 0 0 .205-.5v-16.094c0-1.606-1.326-2.907-2.962-2.907-1.635 0-2.96 1.301-2.96 2.907s1.325 2.908 2.96 2.908a2.84 2.84 0 0 0 1.481-.401v12.833h-15.93a.7.7 0 0 0-.51.201.68.68 0 0 0-.204.5v7.47a.61.61 0 0 0 .306.552.63.63 0 0 0 .664.1l7.097-2.005-.562 4.16v.156c0 .797.358 1.048 1.48 1.8.41.3.869.601.869.601.246.151.527.237.817.251.51 0 .663-.1 1.736-.852q.127-.09.244-.17c.898-.626 1.287-.896 1.287-1.63v-.155l-.46-4.096 7.046 2.005c.026 0 .064.012.102.023a.4.4 0 0 0 .102.022.8.8 0 0 0 .46-.15c.186-.125.3-.33.306-.551v-7.48a1.015 1.015 0 0 0-.868-.752m-5.411-13.886c-.818 0-1.481-.651-1.481-1.454s.663-1.454 1.48-1.454c.818 0 1.481.651 1.481 1.454s-.663 1.454-1.48 1.454m-6.331 25.075c0 .05 1.735 1.208 1.735 1.208a15 15 0 0 0 1.736-1.208l-.51-4.461-1.226-.597-1.123.547z" style="stroke-width:1px"/>
  <path d="M206.974 313.449h-6.944v-17.346a.75.75 0 0 0-.51-.701.67.67 0 0 0-.817.305l-3.983 5.816h-10.721l-3.982-5.816a.77.77 0 0 0-.817-.305.71.71 0 0 0-.51.701v17.346h-6.384a.71.71 0 0 0-.659.704c0 .367.287.673.66.704h6.381v1.805h-4.236a.71.71 0 0 0-.715.702c0 .387.32.702.715.702h4.236v3.058a.7.7 0 0 0 .205.5c.135.133.32.206.51.201h13.53a.71.71 0 0 0 .714-.701.71.71 0 0 0-.715-.702h-12.813v-2.306h3.88a.71.71 0 0 0 .66-.704.71.71 0 0 0-.66-.705h-3.881v-1.79h5.31l3.42 3.053c.145.12.323.192.51.206a.65.65 0 0 0 .511-.206l3.676-3.208a.706.706 0 0 0-.24-1.245.73.73 0 0 0-.73.192l-3.216 2.758-3.166-2.803a.9.9 0 0 0-.51-.205h-5.565v-14.994l2.859 4.16c.14.194.37.307.612.301h11.489a.74.74 0 0 0 .612-.3l2.86-4.161v22.709c0 .387.32.702.714.702a.71.71 0 0 0 .715-.702v-3.058h5.054a.71.71 0 0 0 .66-.704.71.71 0 0 0-.66-.705h-5.054v-1.79h6.943a.7.7 0 0 0 .512-.202.68.68 0 0 0 .203-.504.63.63 0 0 0-.147-.533.65.65 0 0 0-.517-.22" fill="#3a00af" style="stroke-width:1px"/>
</svg>
